<svg width="104" height="60" viewBox="0 0 104 60" fill="none" xmlns="http://www.w3.org/2000/svg">
<path d="M8.83982 47.44C22.008 29.3506 39.7876 20.4135 61.38 17.6723C61.6937 16.9859 62.1633 16.0518 62.5325 15.0762C66.6634 4.37048 73.4164 -0.243288 84.744 0.0098526C89.838 0.119647 94.7295 1.28571 99.3369 3.50007C100.56 4.08716 101.805 4.82881 102.727 5.81558C104.255 7.46226 103.91 8.84782 101.71 9.55971C95.4928 4.21824 81.9288 2.73465 74.8358 6.63317C70.5293 8.99533 68.3485 12.9542 66.8257 17.821C67.9855 18.1998 68.9761 18.4547 69.9024 18.8479C74.5359 20.7792 79.2655 22.5312 83.7433 24.7882C85.8552 25.8575 87.674 27.746 89.2802 29.5697C92.1586 32.8221 93.0818 36.5979 91.0527 40.7467C89.0166 44.9218 84.685 47.5107 80.2071 47.1507C76.7651 46.8739 73.6828 45.6048 70.99 43.4151C66.1853 39.4978 63.0104 34.5228 61.6386 28.3883C61.3723 27.1835 61.0978 25.9834 60.8305 24.8349C45.9022 22.8249 18.7353 39.5745 13.5157 51.2656C18.2258 50.9314 22.2388 47.3357 26.9667 48.6201C27.8856 50.5686 26.7668 51.4043 25.4419 51.9928C20.1352 54.3735 14.8393 56.7924 9.46711 58.9995C6.35876 60.2786 4.81111 59.3131 4.36956 55.9796C3.56261 49.8145 2.59784 43.7199 0.105483 37.9534C-0.259786 37.0968 0.425441 35.7682 0.620753 34.6604C1.69882 34.9533 3.30171 34.8933 3.75132 35.5888C5.30787 38.0219 6.54083 40.6786 7.73483 43.3246C8.28783 44.5508 8.4463 45.9529 8.83159 47.4449L8.83982 47.44ZM66.6066 24.3655C66.3329 31.8013 72.1361 40.0528 78.3949 41.5761C79.402 41.8214 80.5134 41.8827 81.5403 41.737C83.6626 41.45 85.0414 40.1045 85.9509 38.1644C86.9247 36.086 85.8998 34.5122 84.621 33.188C79.6751 28.0928 73.4452 25.7491 66.6018 24.3572L66.6066 24.3655Z" fill="#755AE8"/>
</svg>
