<svg width="81" height="137" viewBox="0 0 81 137" fill="none" xmlns="http://www.w3.org/2000/svg">
<path d="M24.7678 127.716C27.981 116.23 25.6819 104.036 31.7073 93.2515C36.2086 94.9609 36.4587 98.282 35.0041 100.65C32.9566 104.007 33.0839 107.433 32.8879 110.928C32.5325 117.405 32.3606 123.895 32.1649 130.37C31.9834 136.402 30.0734 137.761 24.8691 135.284C17.9034 131.982 10.9807 128.577 4.05117 125.183C2.71544 124.527 1.47072 123.684 9.92699e-05 122.82C4.19301 119.611 4.96373 119.758 20.8196 126.509C20.4137 124.772 20.2508 123.388 19.7796 122.128C10.8574 98.3095 11.2912 74.8628 22.6099 51.8803C27.4427 42.0545 33.9149 33.659 44.0857 29.1117C46.9043 27.851 47.9447 25.7391 48.7751 23.1333C51.3107 15.2935 55.6415 8.63712 61.7047 3.19161C63.2546 1.79793 65.068 0.720147 67.2161 5.92318e-05C61.0826 7.96608 54.1081 15.2126 52.2174 25.9286C53.6988 25.9931 54.9712 26.0638 56.2454 26.1033C67.7767 26.4316 76.7007 33.6391 79.7038 45.0384C82.3299 55.04 77.5117 64.0042 68.1136 66.6046C57.5669 69.5293 47.8963 64.139 45.7105 53.7515C44.9404 50.0928 45.0925 46.2023 44.9925 42.4216C44.9371 40.2622 45.2267 38.0799 45.3987 35.2968C39.9209 37.203 36.3516 40.7619 33.3404 44.8421C21.4871 60.9366 16.5102 79.1529 18.1569 99.1006C18.682 105.532 20.3289 111.881 21.7263 118.196C22.4356 121.432 23.7421 124.536 24.7815 127.692L24.7678 127.716ZM63.7334 32.9991C61.1106 32.8281 57.0568 32.3643 52.9883 32.4559C51.9007 32.4776 50.1069 34.0503 49.894 35.1498C48.6732 41.7317 47.8767 48.4017 50.2502 54.9196C52.3874 60.767 58.7495 63.7951 65.3807 62.3085C71.7074 60.8849 75.4421 56.1985 74.8672 49.8831C74.2458 43.0086 70.6232 37.8839 63.7266 33.0112L63.7334 32.9991Z" fill="#755AE8"/>
</svg>
